# xmcd CD database file
#
# Track frame offsets:
#	187
#	19475
#	36870
#	56105
#
# Disc length: 979 seconds
#
# Revision: 0
# Processed by: cddbd v1.5.1PL2 Copyright (c) Steve Scherf et al.
# Submitted via: CDex 1.51
#
DISCID=3303d104
DTITLE=高橋 由美子 - いつか逢おうね
DYEAR=1900
DGENRE=Pop
TTITLE0=いつか逢おうね
TTITLE1=あの日から僕は
TTITLE2=いつか逢おうね（オリジナル・カラオケ）
TTITLE3=あの日から僕は（オリジナル・カラオケ）
EXTD=
EXTT0=
EXTT1=
EXTT2=
EXTT3=
PLAYORDER=
